P2
# CREATOR: GIMP PNM Filter Version 1.1
100 91
255
255
255
255
255
255
255
255
255
255
255
255
255
255
255
255
255
255
255
255
255
255
255
255
255
255
255
255
255
255
255
255
255
255
255
255
255
255
255
255
255
255
255
255
255
255
255
255
255
255
214
127
86
72
75
88
107
131
161
201
245
255
255
255
255
255
255
255
255
255
255
255
255
255
255
255
255
255
255
255
255
255
255
255
255
255
255
255
255
255
255
255
255
255
255
255
255
255
255
255
255
255
255
255
255
255
255
255
255
255
255
255
255
255
255
255
255
255
255
255
255
255
255
255
255
255
255
255
255
255
255
255
255
255
255
255
255
255
255
255
255
255
255
255
255
255
255
239
204
200
91
128
158
164
162
155
141
120
93
80
78
117
170
232
255
255
255
255
255
255
255
255
255
255
255
255
255
255
255
255
255
255
255
255
255
255
255
255
255
255
255
255
255
255
255
255
255
255
255
255
255
255
255
255
255
255
255
255
255
255
255
255
255
255
255
255
255
255
255
255
255
255
255
255
255
255
255
255
255
255
255
255
255
255
255
255
255
255
255
255
255
255
255
255
255
255
179
139
163
151
83
151
170
170
170
170
159
133
149
135
94
102
84
81
123
198
252
255
255
255
255
255
255
255
255
255
255
255
255
255
255
255
255
255
255
255
255
255
255
255
255
255
255
255
255
255
255
255
255
255
255
255
255
255
255
255
255
255
255
255
255
255
255
255
255
255
255
255
255
255
255
255
255
255
255
255
255
255
255
255
255
255
255
255
255
255
255
255
255
255
255
255
255
255
255
231
133
166
134
101
81
101
157
169
170
170
168
122
80
100
136
89
117
90
83
82
106
191
254
255
255
255
255
255
255
255
255
255
255
255
255
255
255
255
255
255
255
255
255
255
255
255
255
255
255
255
255
255
255
255
255
255
255
255
255
255
255
255
255
255
255
255
255
255
255
255
255
255
255
255
255
255
255
255
255
255
255
255
255
255
255
255
255
255
255
255
255
255
255
253
248
255
255
255
255
201
145
131
95
80
59
70
82
90
94
92
91
105
102
76
90
121
83
125
86
83
103
80
109
228
255
255
255
255
255
255
255
255
255
255
255
255
255
255
255
255
255
255
255
255
255
255
255
255
255
255
255
255
255
255
255
255
255
255
255
255
255
255
255
255
255
255
255
255
255
255
255
255
255
255
255
255
255
255
255
255
255
255
255
255
255
255
255
255
255
255
255
255
255
245
175
254
196
255
255
215
113
111
123
128
121
68
51
68
82
83
83
83
83
72
72
131
77
97
123
83
109
112
83
80
178
243
244
235
255
255
255
255
255
255
255
255
255
255
255
255
255
255
255
255
255
255
255
255
255
255
255
255
255
255
255
255
255
255
255
255
255
255
255
255
255
255
255
255
255
255
255
255
255
255
255
255
255
255
255
255
255
255
255
255
255
255
255
255
255
255
255
231
225
240
150
228
135
234
255
254
177
131
109
115
108
116
126
119
63
76
83
83
81
83
41
56
56
79
146
77
83
132
83
83
84
109
105
125
255
255
255
255
255
255
255
255
255
255
255
255
255
255
255
255
255
255
255
255
255
255
255
255
255
255
255
255
255
255
255
255
255
255
255
255
255
255
255
255
255
255
255
255
255
255
255
255
255
255
255
255
255
255
255
255
255
255
255
255
255
253
244
219
173
225
114
181
126
148
193
211
244
255
245
194
127
116
117
113
94
52
75
83
73
61
55
32
34
40
45
75
83
134
83
93
154
170
126
235
255
255
255
255
255
255
255
255
255
255
255
255
255
255
255
255
255
255
255
255
255
255
255
255
255
255
255
255
255
255
255
255
255
255
255
255
255
255
255
255
255
255
255
255
255
255
255
255
255
255
255
255
255
255
245
251
255
255
255
255
255
234
174
196
167
194
96
157
104
119
131
148
156
175
205
200
249
152
115
121
133
113
97
83
83
83
80
36
32
35
45
43
55
106
113
159
153
95
132
118
218
255
255
255
255
255
255
255
255
255
255
255
255
255
255
255
255
255
255
255
255
255
255
255
255
255
255
255
255
255
255
255
255
255
255
255
255
255
255
255
255
255
255
255
255
255
255
255
255
255
255
255
222
200
167
212
255
255
255
255
255
179
172
143
155
140
126
153
90
152
171
161
149
151
162
145
201
252
139
117
117
118
128
124
83
83
83
51
34
41
35
43
48
44
90
80
35
104
170
114
87
180
255
255
255
255
255
255
255
255
255
255
255
255
255
255
255
255
255
255
255
255
255
255
255
255
255
255
255
255
255
255
255
255
255
255
255
255
255
255
255
255
255
255
255
255
255
255
255
255
253
210
207
187
194
216
255
255
255
255
248
141
133
164
156
136
170
107
136
133
113
112
137
156
91
46
42
195
214
112
117
105
106
157
83
68
65
40
38
48
60
79
51
49
108
65
41
34
78
81
83
81
151
253
255
255
255
255
255
255
255
255
255
255
255
255
255
255
255
255
255
255
255
255
255
255
255
255
255
255
255
255
255
255
255
255
255
255
255
255
255
255
255
255
255
255
255
255
255
253
203
201
196
188
237
220
255
255
255
254
167
159
171
165
151
141
100
88
117
138
163
159
118
115
118
56
48
62
237
104
124
137
92
162
95
82
78
71
34
40
78
94
143
99
97
46
78
47
32
46
133
138
82
137
253
255
255
255
255
255
255
255
255
255
255
255
255
255
255
255
255
255
255
255
255
255
255
255
255
255
255
255
255
255
255
255
255
255
255
255
255
255
255
255
255
255
255
255
255
211
195
195
193
192
252
244
255
255
254
176
165
108
161
135
78
81
95
94
128
71
109
136
156
99
106
71
71
49
126
111
117
117
108
136
115
83
83
83
50
32
40
71
96
126
33
41
53
78
51
32
51
148
99
80
145
254
255
255
255
255
255
255
255
255
255
255
255
255
255
255
255
255
255
255
255
255
255
255
255
255
255
255
255
255
255
255
255
255
255
255
255
255
255
255
255
255
255
255
255
187
181
171
189
244
255
233
223
255
168
156
157
100
126
84
81
73
55
65
99
112
123
121
126
127
103
108
71
73
44
112
117
107
108
118
130
83
83
83
53
38
37
47
79
108
80
38
48
53
79
54
32
45
88
83
80
169
255
255
255
255
255
255
255
255
255
255
255
255
255
255
255
255
255
255
255
255
255
255
255
255
255
255
255
255
255
255
255
255
255
255
255
255
255
255
255
255
255
255
255
217
166
177
182
203
183
195
253
245
174
191
146
115
84
84
83
75
77
81
86
101
124
112
119
157
119
115
80
86
53
65
117
126
108
97
141
83
67
65
39
42
50
72
83
96
103
48
40
48
54
80
56
41
39
76
83
81
205
255
255
255
255
255
255
255
255
255
255
255
255
255
255
255
255
255
255
255
255
255
255
255
255
255
255
255
255
255
255
255
255
255
255
255
255
255
255
255
255
255
255
254
169
171
187
198
239
255
254
180
206
242
228
188
154
181
206
186
112
78
98
99
137
91
116
164
138
125
83
87
78
49
93
117
118
100
145
83
82
76
59
35
47
57
107
109
73
81
57
40
48
57
81
55
43
52
148
99
94
241
255
255
255
255
255
255
255
255
255
255
255
255
255
255
255
255
255
255
255
255
255
255
255
255
255
255
255
255
255
255
255
255
255
255
255
255
255
255
255
255
255
254
181
194
181
218
230
228
206
230
239
216
200
200
199
186
186
200
184
145
81
108
136
109
123
171
148
143
100
101
82
59
111
115
117
116
144
83
83
83
64
32
37
48
88
83
79
83
82
59
40
48
62
81
52
43
78
84
83
139
255
255
255
255
255
255
255
255
255
255
255
255
255
255
255
255
255
255
255
255
255
255
255
255
255
255
255
255
255
255
255
255
255
255
255
255
255
255
255
255
255
255
190
183
151
190
140
176
227
240
203
172
181
154
119
122
167
182
207
235
131
142
170
124
142
177
156
136
45
95
50
32
95
104
101
117
133
83
83
83
57
38
41
48
71
106
41
78
83
82
56
40
48
70
77
47
43
72
83
80
210
255
255
255
255
255
255
255
255
255
255
255
255
255
255
255
255
255
255
255
255
255
255
255
255
255
255
255
255
255
255
255
255
255
255
255
255
255
255
255
255
255
192
175
175
181
186
176
240
220
164
197
180
176
159
175
198
242
255
234
162
165
165
139
152
140
167
113
40
56
75
34
79
117
74
152
106
83
67
62
44
53
74
104
135
65
34
39
74
83
80
51
42
50
79
67
48
45
82
83
109
252
255
255
255
255
255
255
255
255
255
255
255
255
255
255
255
255
255
255
255
255
255
255
255
255
255
255
255
255
255
255
255
255
255
255
255
255
255
255
255
255
234
159
142
199
117
152
232
206
158
172
181
194
175
228
255
255
254
184
178
159
141
160
132
85
148
71
60
47
86
36
70
96
116
135
83
83
82
65
35
48
112
104
48
71
54
37
34
64
77
75
46
45
59
83
55
47
112
132
81
188
255
255
255
255
255
255
255
255
255
255
255
255
255
255
255
255
255
255
255
255
255
255
255
255
255
255
255
255
255
255
255
255
255
255
255
255
255
255
255
255
255
255
249
245
246
233
193
211
150
181
186
180
193
187
255
255
251
174
140
163
102
135
163
73
105
89
58
47
86
44
53
119
134
84
83
83
83
68
41
43
75
123
37
55
80
58
40
52
83
83
63
45
46
73
80
50
54
94
83
101
252
255
255
255
255
255
255
255
255
255
255
255
255
255
255
255
255
255
255
255
255
255
255
255
255
255
255
255
255
255
255
255
255
255
255
255
255
255
255
255
255
255
255
255
255
255
236
181
144
154
126
157
184
178
254
255
242
155
148
152
91
120
137
80
120
84
55
49
84
57
80
103
83
83
78
66
68
59
130
49
91
94
37
39
59
81
59
41
60
83
80
50
45
54
92
93
48
64
83
79
194
255
255
255
255
255
255
255
255
255
255
255
255
255
255
255
255
255
255
255
255
255
255
255
255
255
255
255
255
255
255
255
255
255
255
255
255
255
255
255
255
255
255
255
255
255
255
255
252
212
153
171
146
178
255
255
179
163
164
173
141
142
174
91
124
83
53
54
65
69
57
83
83
83
83
76
43
48
94
140
92
61
57
46
40
59
80
57
41
60
80
66
48
46
74
138
48
53
91
83
114
255
255
255
255
255
255
255
255
255
255
255
255
255
255
255
255
255
255
255
255
255
255
255
255
255
255
255
255
255
255
255
255
255
255
255
255
255
255
255
255
255
255
255
255
255
255
255
241
179
189
125
117
185
255
214
163
149
178
167
173
167
163
89
131
77
64
53
38
79
49
75
79
82
83
65
34
37
56
119
57
83
98
76
49
44
99
90
54
54
153
100
60
48
64
147
66
48
66
83
78
217
255
255
255
255
255
255
255
255
255
255
255
255
255
255
255
255
255
255
255
255
255
255
255
255
255
255
255
255
255
255
255
255
255
255
255
255
255
255
255
255
255
255
255
255
255
238
146
184
181
136
133
245
255
173
145
131
178
178
136
176
132
130
57
81
70
39
39
41
52
53
82
64
50
55
91
39
70
121
33
66
83
128
78
73
117
125
112
84
97
87
87
81
79
133
97
48
56
83
83
131
255
255
255
255
255
255
255
255
255
255
255
255
255
255
255
255
255
255
255
255
255
255
255
255
255
255
255
255
255
255
255
255
255
255
255
255
255
255
255
255
255
255
255
255
206
176
187
190
171
184
226
255
255
211
52
100
177
114
62
172
139
69
44
83
50
37
43
41
51
48
76
76
40
49
100
129
139
74
62
57
86
133
147
82
81
125
121
159
120
83
73
93
118
134
110
58
55
83
83
76
203
255
255
255
255
255
255
255
255
255
255
255
255
255
255
255
255
255
255
255
255
255
255
255
255
255
255
255
255
255
223
198
217
239
247
255
255
255
255
255
255
255
246
195
134
181
167
162
120
221
255
255
253
132
134
79
53
73
84
135
64
54
82
84
43
37
46
46
47
49
53
45
42
58
89
93
66
82
122
70
73
139
170
106
107
110
154
101
101
136
90
54
51
86
99
84
150
143
111
84
79
214
255
255
255
255
255
255
255
255
255
255
255
255
255
255
255
255
255
255
255
255
255
255
255
255
255
255
255
209
188
186
190
184
191
249
255
255
255
255
255
240
146
164
179
205
161
187
230
255
255
255
198
120
90
150
162
109
92
158
148
96
85
85
44
40
47
51
45
42
39
60
69
82
120
62
60
82
105
119
82
81
149
116
44
80
123
72
47
42
125
98
63
44
112
68
49
84
115
120
84
56
216
255
255
255
255
255
255
255
255
255
255
255
255
255
255
255
255
255
255
255
255
255
255
255
255
255
255
228
191
191
186
186
197
193
219
255
255
255
244
163
189
186
190
211
148
242
255
255
255
255
143
128
102
168
134
85
94
160
154
90
91
92
49
41
48
51
48
42
45
44
111
119
63
85
79
90
162
164
84
137
154
104
48
43
91
77
49
46
148
116
81
46
120
99
49
59
51
43
50
226
254
255
255
255
255
255
255
255
255
255
255
255
255
255
255
255
255
255
255
255
255
255
255
255
255
255
255
252
206
189
180
188
198
197
213
219
255
255
170
124
181
177
133
184
250
255
255
255
255
255
118
147
96
168
151
99
90
157
133
105
138
107
81
45
48
45
47
36
43
45
49
57
80
100
88
81
123
165
55
40
61
90
55
47
95
104
67
46
142
119
85
53
120
114
62
72
90
64
43
199
255
255
255
255
255
255
255
255
255
255
255
255
255
255
255
255
255
255
255
255
255
255
255
255
255
255
255
255
255
251
245
215
220
192
186
178
246
246
181
134
195
181
193
252
255
255
255
255
255
255
132
142
104
167
166
93
98
154
164
128
109
113
83
58
49
43
60
46
36
48
40
81
69
92
111
85
115
119
73
49
46
128
81
50
65
132
85
49
101
124
84
65
86
127
82
54
108
90
51
140
255
255
255
255
255
255
255
255
255
255
255
255
255
255
255
255
255
255
255
255
255
255
255
255
255
255
255
255
255
255
255
255
255
205
195
202
226
215
169
185
195
136
247
255
255
255
255
255
255
255
189
141
116
153
143
122
113
146
170
155
132
112
64
80
55
37
46
70
49
45
62
72
80
93
125
83
77
50
114
93
47
94
112
72
46
119
104
61
49
114
83
77
41
126
99
49
64
83
58
98
255
255
255
255
255
255
255
255
255
255
255
255
255
255
255
255
255
255
255
255
255
255
255
255
255
255
255
255
255
255
255
255
255
198
210
186
222
196
142
177
182
182
255
255
255
255
255
255
255
255
246
113
125
138
154
154
116
115
155
169
121
112
38
48
68
62
42
53
75
42
88
90
112
135
214
126
83
67
62
136
95
50
88
102
62
54
114
79
48
56
83
83
48
60
109
54
52
90
61
70
254
255
255
255
255
255
255
255
255
255
255
255
255
255
255
255
255
255
255
255
255
255
255
255
255
255
255
255
255
255
255
255
233
178
176
190
246
193
125
187
143
193
255
255
255
255
255
255
255
255
255
126
134
120
165
166
118
112
71
164
136
88
42
46
58
96
43
61
70
51
73
134
157
147
247
236
106
83
71
57
107
89
53
77
89
55
51
83
65
45
57
84
65
35
78
52
46
75
63
57
251
255
255
255
255
255
255
255
255
255
255
255
255
255
255
255
255
255
255
255
255
255
255
255
255
255
255
255
255
255
255
255
208
204
215
202
255
220
198
173
152
167
255
255
255
255
255
255
255
255
255
154
121
99
110
169
136
120
47
74
133
71
37
47
46
120
64
122
132
78
69
134
52
39
176
255
245
193
115
72
119
240
118
55
124
86
51
130
101
60
49
126
79
43
127
97
48
66
64
53
249
255
255
255
255
255
255
255
255
255
255
255
255
255
255
255
255
255
255
255
255
255
255
255
255
255
255
255
255
255
255
255
183
211
189
218
255
227
146
206
133
118
226
255
255
255
255
255
255
255
255
196
184
52
86
110
168
108
57
43
34
105
56
43
48
82
125
77
143
100
91
112
46
46
81
255
255
255
245
111
67
231
248
115
95
188
71
132
187
79
41
183
79
62
123
210
47
62
64
56
250
255
255
255
255
255
255
255
255
255
255
255
255
255
255
255
255
255
255
255
255
255
255
255
255
255
255
255
255
255
255
255
195
182
193
226
255
253
181
168
159
118
123
181
206
198
191
185
195
202
249
255
255
130
77
80
69
70
78
49
38
63
111
50
62
53
128
99
133
89
85
93
42
51
40
226
255
255
255
224
87
163
255
206
70
237
111
113
231
79
47
201
86
74
115
236
48
60
64
70
254
255
255
255
255
255
255
255
255
255
255
255
255
255
255
255
255
255
255
255
255
255
255
255
255
255
255
255
255
255
255
255
173
224
220
203
254
255
206
174
196
118
118
120
165
183
184
185
198
184
182
251
255
163
51
92
70
47
114
67
48
46
98
88
58
136
102
150
127
157
43
45
38
53
45
184
255
255
255
255
183
97
254
248
85
181
181
83
248
72
55
185
117
79
107
245
53
59
63
111
255
255
255
255
255
255
255
255
255
255
255
255
255
255
255
255
255
255
255
247
240
255
255
255
255
255
255
255
255
255
255
255
208
176
222
201
197
252
253
180
184
129
118
117
123
171
183
183
186
185
191
215
255
177
75
56
90
60
68
121
59
76
52
122
77
110
169
139
164
170
54
46
41
55
47
163
255
255
255
255
254
111
203
255
148
126
234
68
222
82
63
164
141
82
98
251
58
59
57
175
255
255
255
255
255
255
255
255
255
253
255
255
255
255
255
255
254
174
211
137
184
255
255
255
255
255
232
226
255
255
255
255
232
209
197
224
214
176
245
253
216
176
122
120
117
125
171
181
171
183
181
192
255
226
86
54
59
85
55
87
117
107
96
65
150
95
162
130
64
126
47
43
46
50
53
146
255
255
255
255
255
235
94
244
228
76
251
105
152
109
69
145
161
83
90
255
61
52
47
238
255
255
255
255
255
255
255
255
223
172
255
255
255
255
255
255
226
117
113
136
217
255
255
255
255
255
198
195
252
255
255
255
255
227
183
212
167
185
153
251
255
252
230
218
227
237
242
220
182
173
183
182
255
255
156
65
95
59
82
56
108
139
154
78
97
146
147
139
34
48
49
40
52
46
55
48
154
252
255
255
255
255
233
245
255
127
217
157
87
144
73
126
181
83
79
255
67
43
74
254
255
255
255
255
252
255
255
253
136
140
238
255
255
255
243
223
215
130
142
182
252
253
255
255
255
255
245
180
243
255
255
255
255
255
239
188
184
209
181
219
255
255
255
255
233
194
106
83
204
166
180
163
221
243
201
109
142
106
56
81
67
132
170
112
97
46
85
100
43
41
49
49
51
54
55
48
48
105
236
255
255
255
255
255
255
238
149
218
42
184
70
108
196
83
67
254
75
43
106
255
255
255
255
255
234
195
255
216
113
140
208
213
255
255
165
117
160
127
156
185
172
218
255
255
255
255
255
227
171
195
138
249
255
255
255
247
175
171
167
193
255
255
255
240
195
194
39
82
198
121
118
129
195
235
139
168
135
158
66
47
64
83
126
164
118
46
32
36
57
41
49
55
54
59
55
46
57
49
71
204
255
255
255
255
255
255
242
254
77
218
59
92
220
79
58
252
83
42
129
255
255
255
255
255
255
152
222
180
113
143
167
135
239
255
180
121
116
142
148
151
178
250
255
255
255
255
254
221
116
116
162
213
255
255
255
255
211
167
175
150
253
255
243
192
178
188
70
162
192
121
117
104
182
198
195
103
135
140
90
80
32
59
44
51
60
52
40
32
55
46
55
55
59
65
55
38
44
72
52
51
156
252
255
255
255
255
255
255
176
227
121
79
252
90
49
250
94
41
148
255
255
255
255
255
255
142
177
157
113
151
146
131
189
250
248
135
138
131
150
203
253
255
255
255
255
255
173
131
141
126
134
241
255
255
255
255
228
164
202
189
205
255
187
185
181
185
197
200
190
138
105
124
186
196
231
189
136
160
120
109
58
34
64
36
35
68
48
34
42
59
56
52
59
78
55
53
40
44
80
57
48
107
236
255
255
255
255
255
255
255
224
75
255
172
43
248
110
41
162
255
255
255
255
255
250
126
157
132
125
156
143
134
164
131
153
165
118
155
169
211
193
255
255
255
255
255
189
166
110
164
160
157
254
255
255
255
250
195
174
194
169
161
161
183
176
189
182
184
192
187
177
185
173
180
150
168
170
157
128
105
104
36
41
67
35
51
59
43
33
69
51
60
63
74
69
45
64
44
43
84
70
51
71
204
255
255
255
255
255
255
255
119
255
234
36
247
138
41
176
255
255
255
255
255
239
122
156
120
140
156
136
139
162
162
115
120
113
144
148
156
210
255
255
255
255
255
251
212
147
189
214
148
218
255
252
255
255
164
166
209
184
143
179
175
198
153
91
131
200
197
186
185
195
166
128
120
129
144
130
105
105
67
32
55
69
36
65
57
54
59
60
72
75
80
54
46
48
67
47
41
93
96
52
52
158
253
255
255
255
255
255
135
255
245
36
247
185
40
189
255
255
255
255
255
241
120
156
120
149
155
122
150
183
252
185
120
129
143
155
207
255
255
255
255
255
255
255
255
182
164
210
162
156
194
189
206
255
198
206
192
201
191
175
175
94
38
51
127
197
184
217
206
171
168
160
144
124
117
107
99
100
83
60
33
69
75
53
77
77
49
68
71
55
42
47
70
48
49
68
52
52
61
70
48
48
109
238
255
255
255
255
133
255
242
37
248
227
35
203
255
255
255
255
255
254
142
137
125
153
142
134
158
233
255
255
213
116
138
159
229
255
217
229
255
255
255
255
255
245
146
155
141
154
174
150
154
239
253
191
128
192
174
156
184
124
147
242
234
237
242
255
208
145
125
120
88
112
117
108
88
99
83
129
122
48
79
80
80
78
62
46
61
40
37
42
54
72
47
48
67
58
38
53
91
82
58
72
206
255
255
255
140
255
237
43
250
239
32
217
255
255
255
255
255
255
228
129
131
154
137
160
222
255
255
255
254
181
131
156
243
204
189
238
255
255
255
255
255
255
241
120
115
105
108
120
142
150
221
255
249
227
232
252
255
255
255
255
198
208
255
255
255
255
238
189
125
114
101
87
73
108
83
140
250
104
79
70
80
49
69
59
42
40
38
41
42
58
72
47
48
64
63
39
68
79
59
48
54
163
253
255
199
255
235
54
252
227
34
231
255
255
255
255
254
252
255
184
136
148
174
236
255
255
255
214
216
212
199
158
253
195
198
225
255
255
255
255
255
255
231
94
107
78
113
115
113
151
141
229
255
255
255
255
255
255
208
227
161
244
255
255
255
255
255
255
158
105
124
168
231
247
104
172
255
244
116
48
56
44
34
40
46
39
40
43
43
42
61
73
47
48
60
67
44
45
70
83
73
64
118
243
255
255
242
78
255
193
42
250
255
255
255
255
213
198
249
208
139
189
252
255
255
255
255
223
187
197
248
160
243
194
234
252
255
255
255
255
255
255
219
95
107
105
100
104
94
111
152
122
211
255
255
255
255
245
148
139
137
152
231
255
255
255
255
255
255
255
255
255
255
255
236
250
255
255
246
94
42
49
42
36
48
37
43
68
50
45
42
63
73
47
47
54
69
45
43
98
90
50
48
82
221
255
255
196
255
149
126
255
255
255
255
255
214
185
208
215
172
254
244
213
243
255
255
252
206
202
191
184
183
227
255
255
255
255
255
255
255
255
182
93
101
112
103
117
118
112
125
130
204
255
255
255
255
253
150
117
127
144
199
255
255
255
255
255
255
255
255
255
255
255
255
255
255
255
255
209
38
50
48
46
43
40
40
67
193
44
45
41
62
73
47
46
50
68
53
50
54
81
56
48
50
177
255
255
255
119
181
255
255
255
255
255
255
254
209
176
189
206
175
192
220
255
255
255
255
255
232
182
169
252
255
255
255
255
255
255
255
255
255
126
104
121
98
101
112
104
105
171
158
255
192
214
227
239
158
179
156
187
253
255
255
255
255
255
255
255
255
255
255
255
255
255
255
255
255
255
108
46
56
48
53
53
80
87
255
161
44
46
41
58
72
47
45
48
62
62
41
46
63
41
36
156
255
255
255
185
214
255
255
255
255
255
255
255
253
180
214
231
251
235
254
255
255
255
255
255
255
230
176
255
255
255
255
255
255
255
255
255
255
224
84
104
107
106
107
88
109
163
149
182
148
156
158
147
177
227
186
214
255
255
255
255
235
169
242
255
255
255
255
255
255
255
255
255
255
255
227
55
179
96
54
139
120
253
255
254
127
45
46
39
53
69
47
40
46
54
53
104
97
122
207
255
249
192
219
255
255
255
255
255
255
255
255
255
239
184
255
255
255
255
255
255
255
255
255
255
255
237
166
255
214
252
255
255
255
255
255
255
255
254
160
71
99
111
115
101
133
150
127
171
159
99
154
159
162
196
165
192
255
255
241
255
221
73
114
185
233
230
208
249
255
255
255
255
253
248
255
228
213
175
88
184
188
207
251
255
250
138
88
164
73
43
68
134
88
130
217
255
255
252
248
255
219
189
215
255
255
255
255
255
255
228
166
229
131
174
255
255
255
255
255
255
255
255
255
255
243
179
132
197
118
212
208
202
255
255
255
255
255
255
239
207
102
88
99
104
103
121
157
113
112
104
106
107
124
137
146
130
167
254
171
141
130
157
164
156
138
137
117
177
255
255
255
237
195
187
193
180
188
180
185
181
181
192
194
238
255
255
255
255
252
217
246
255
255
255
255
255
255
168
145
218
186
246
255
255
255
255
255
254
190
123
156
139
134
171
255
255
253
255
255
255
255
255
255
240
226
185
152
117
128
210
124
121
246
255
255
255
255
255
255
255
253
194
101
98
90
113
143
96
108
106
106
107
108
111
132
174
137
160
191
158
149
127
83
144
164
174
161
124
198
235
86
39
170
200
179
176
180
191
187
199
199
184
187
187
198
206
255
255
255
255
255
255
230
241
255
255
255
157
132
126
230
255
255
255
255
255
255
183
116
149
141
114
151
173
243
175
194
255
255
255
255
255
255
209
156
155
154
149
131
159
118
116
221
255
255
255
255
255
255
255
255
228
242
254
250
160
140
107
103
107
94
100
109
107
109
121
156
96
132
110
106
107
107
110
107
117
75
176
154
118
36
43
144
186
187
187
183
188
168
163
187
140
184
193
200
191
222
255
255
255
255
240
117
175
238
252
197
166
134
136
203
255
255
255
255
255
222
115
140
154
117
123
156
161
148
175
252
255
255
255
255
255
255
252
210
181
157
145
127
113
129
114
229
255
255
255
255
255
255
255
255
255
255
255
255
205
115
107
67
129
102
94
103
107
93
137
107
105
118
97
76
124
107
94
106
107
114
124
157
170
91
141
145
131
199
198
171
90
82
104
118
113
128
200
199
100
42
210
255
208
205
151
175
142
113
166
201
210
156
192
243
255
255
255
255
255
163
120
156
136
113
136
155
127
154
227
255
255
255
255
255
255
255
255
239
184
208
181
156
125
135
117
240
219
255
255
255
255
255
255
255
255
255
255
255
232
102
89
94
131
107
107
95
128
106
103
103
118
107
105
105
113
107
72
96
116
107
108
107
123
161
179
96
33
148
199
100
123
166
154
179
179
149
110
108
129
35
131
255
117
155
158
122
107
109
143
196
183
223
255
255
255
255
255
255
255
139
130
155
118
113
150
136
141
168
254
255
255
255
255
255
255
255
255
246
159
155
151
152
153
135
117
147
194
255
255
255
255
255
255
255
255
255
255
255
245
253
241
168
109
81
84
77
90
84
90
149
150
107
107
107
107
107
107
109
104
104
83
135
107
107
116
53
41
81
105
82
170
148
147
124
155
147
151
77
210
52
169
200
162
155
106
107
105
109
124
141
234
255
255
255
255
255
255
255
255
154
134
145
113
123
152
124
155
205
255
255
255
255
255
255
255
255
255
255
222
169
161
152
142
126
113
121
232
253
247
255
255
255
255
255
254
231
230
243
255
255
255
255
254
139
168
211
209
224
250
255
209
86
106
105
116
131
107
107
120
112
106
105
107
105
92
117
52
162
172
154
110
124
109
107
118
138
138
102
192
202
223
153
179
138
100
119
101
107
107
107
252
255
255
255
255
255
255
255
255
189
136
134
113
145
131
143
160
245
255
255
255
255
255
255
255
255
255
255
255
255
232
215
174
154
134
134
254
224
203
255
255
255
255
255
249
203
236
234
219
251
255
255
255
252
255
255
253
172
151
222
255
175
77
96
110
106
107
103
95
116
107
107
100
78
114
172
152
127
128
108
81
98
107
107
103
102
107
95
153
156
153
176
136
107
107
105
101
107
107
97
246
254
255
255
255
255
249
247
255
227
136
127
137
150
125
156
203
255
255
255
255
255
255
255
255
255
255
255
255
255
190
156
151
140
128
158
237
197
193
238
255
255
255
255
255
219
203
237
230
177
202
253
255
255
255
255
207
188
247
148
255
255
167
101
83
85
93
96
98
96
90
81
135
142
138
139
179
141
120
108
135
103
116
93
96
107
92
100
139
111
142
110
104
100
111
98
103
107
99
118
168
247
255
255
255
255
200
197
252
248
142
139
156
130
151
181
252
255
255
255
255
255
255
255
255
255
255
255
255
255
255
249
244
219
159
161
242
192
194
236
255
255
255
255
255
253
221
211
199
170
160
154
204
252
255
255
219
166
221
153
255
255
246
255
253
226
161
137
168
172
116
166
255
144
166
179
147
104
107
107
100
105
107
111
97
130
100
97
109
125
104
107
105
99
114
122
104
91
161
251
255
255
255
255
255
255
209
177
251
254
145
151
141
170
211
252
255
255
255
255
255
255
255
255
255
255
255
255
255
255
255
255
255
255
230
159
230
209
227
255
255
255
255
255
255
255
255
253
251
198
152
164
160
155
195
246
255
195
124
167
255
255
255
255
255
255
247
255
255
253
245
252
255
142
178
171
99
102
105
103
91
143
199
236
251
255
250
191
99
91
96
103
106
104
96
88
80
193
255
255
255
255
255
255
255
255
255
229
192
255
151
192
248
255
255
255
255
255
255
255
255
255
255
255
255
255
255
255
255
255
255
255
245
212
205
226
162
194
227
200
252
242
220
255
255
255
255
255
255
255
241
169
159
165
162
150
176
185
156
156
209
255
255
232
159
161
210
216
210
217
220
213
213
142
179
134
120
94
98
129
228
251
255
255
255
255
255
255
200
205
197
164
153
165
201
245
194
232
255
255
255
255
255
248
247
255
255
255
211
204
204
255
255
255
255
255
255
255
255
255
255
255
255
255
255
255
255
255
255
255
255
254
193
187
195
179
174
145
201
172
160
220
125
251
255
255
255
255
255
255
255
254
185
160
165
165
165
164
165
165
152
211
255
166
179
179
135
135
158
156
137
168
169
131
173
108
118
105
74
158
150
150
219
255
255
255
255
255
255
251
255
255
241
229
242
255
255
255
255
255
255
255
255
213
215
255
255
255
238
169
190
204
204
233
255
255
255
255
255
255
255
255
255
255
255
255
255
255
255
255
255
255
255
208
210
255
255
245
173
146
120
150
116
243
251
255
255
255
255
235
162
185
188
157
165
165
165
165
165
165
165
155
158
138
168
137
161
180
138
178
148
169
180
117
156
107
107
98
79
134
150
172
164
255
255
255
255
255
252
216
185
201
226
222
208
254
255
255
255
255
255
255
233
136
216
250
188
147
196
251
253
220
192
221
255
255
255
255
255
255
255
255
255
255
255
255
255
255
255
255
255
255
255
255
255
255
255
235
164
147
131
113
128
246
125
205
255
255
255
151
236
179
140
162
165
165
165
165
165
165
165
165
165
140
165
180
180
180
175
145
180
140
180
111
108
107
107
91
123
178
165
180
141
198
201
195
184
167
148
157
160
199
200
213
238
255
255
255
255
255
255
219
124
142
199
134
117
153
238
255
255
255
244
255
255
255
255
255
255
255
255
255
255
255
255
255
255
255
255
255
255
255
255
255
255
255
255
255
245
194
157
130
135
227
114
119
244
255
255
151
237
181
183
204
190
177
158
149
163
165
165
165
165
135
179
180
180
180
180
143
180
153
169
152
85
76
71
69
146
180
180
170
137
164
163
164
165
161
150
174
208
229
219
243
255
255
255
255
255
255
204
117
134
142
116
116
145
166
246
249
255
255
255
255
255
255
255
255
255
255
255
255
255
255
255
255
255
255
255
255
255
255
255
255
255
255
255
210
184
219
176
155
124
129
119
114
224
255
255
232
161
185
254
255
255
255
255
240
192
153
165
165
165
141
180
180
180
180
180
160
164
178
144
180
139
170
169
169
178
180
180
180
136
165
165
165
155
198
247
253
255
255
255
255
255
255
255
255
255
205
115
132
138
114
130
152
156
148
134
247
255
255
255
255
255
255
255
255
255
255
255
255
255
255
255
255
255
255
255
255
255
255
255
255
255
255
255
221
156
150
142
137
127
113
122
115
224
255
255
255
255
255
255
255
255
255
255
255
255
201
162
165
165
135
180
180
180
180
180
178
146
180
143
179
151
172
180
180
180
180
180
179
135
165
165
165
154
225
173
149
158
253
255
255
255
255
255
255
245
119
132
138
117
146
156
156
152
124
174
255
255
255
255
255
255
255
255
255
255
255
255
255
255
255
255
255
255
255
255
255
255
255
255
255
255
255
255
255
215
174
165
159
156
134
131
113
221
179
255
251
242
255
255
255
255
255
245
243
220
158
165
165
165
154
147
180
180
180
180
180
142
180
165
156
178
143
180
180
180
180
180
149
154
165
165
165
165
149
155
255
178
224
255
255
250
241
255
255
211
131
145
120
150
156
156
152
126
150
198
255
255
255
255
255
255
255
255
255
255
255
255
255
255
255
255
255
255
255
255
255
255
255
255
255
255
255
255
255
255
224
227
233
178
155
136
113
128
136
255
224
196
241
255
255
253
216
226
243
197
165
165
165
165
139
166
149
170
180
180
180
156
165
180
140
179
147
172
180
180
177
153
167
137
165
165
156
150
166
138
202
143
244
255
255
207
199
239
255
193
150
127
152
156
156
146
127
151
159
239
255
255
255
255
255
255
255
255
255
255
255
255
255
255
255
255
255
255
255
255
255
255
255
255
255
255
255
255
255
255
178
156
153
146
141
146
130
114
133
253
196
195
207
255
255
236
222
238
227
214
196
189
181
171
140
171
169
137
180
180
180
180
138
180
171
147
179
141
180
180
131
167
151
139
151
182
219
251
255
243
200
236
255
255
255
226
183
248
254
162
147
154
156
149
128
132
154
159
219
255
255
255
255
255
255
255
255
255
255
255
255
255
255
255
255
255
255
255
255
255
255
255
255
255
255
255
255
255
255
255
240
168
156
160
196
157
151
136
131
199
232
183
244
255
255
253
231
220
227
249
255
255
255
255
189
154
152
110
110
134
146
154
147
138
165
136
159
139
150
128
84
166
172
156
245
255
255
255
255
255
255
255
255
255
255
255
207
232
212
149
143
136
127
127
146
170
197
239
255
255
255
255
255
255
255
255
255
255
255
255
255
255
255
255
255
255
255
255
255
255
255
255
255
255
255
255
255
255
255
255
255
250
218
243
246
162
197
220
197
158
199
211
236
255
255
255
255
255
255
255
255
255
255
255
255
237
199
151
141
121
113
109
106
104
103
102
101
101
103
111
146
130
184
253
255
255
255
236
189
162
161
177
210
250
255
255
210
172
169
200
210
217
228
237
249
255
255
255
255
255
255
255
255
255
255
255
255
255
255
255
255
255
255
255
255
255
255
255
255
255
255
255
255
255
255
255
255
255
255
255
255
255
255
255
255
252
254
209
211
243
188
169
224
255
255
199
142
198
254
164
145
196
255
255
255
255
255
231
178
163
154
150
149
149
150
150
149
151
156
163
179
234
255
255
255
255
190
117
120
145
156
156
178
247
255
251
172
171
222
255
255
255
255
255
255
255
255
255
255
255
255
255
255
255
255
255
255
255
255
255
255
255
255
255
255
255
255
255
255
255
255
255
255
255
255
255
255
255
255
255
255
255
255
255
255
254
202
190
198
186
209
196
154
131
153
227
144
118
187
190
113
115
202
249
244
255
255
255
255
255
255
254
248
249
250
245
252
255
255
255
255
255
255
255
255
191
114
130
154
152
137
127
129
129
148
172
206
236
197
206
219
252
255
255
255
255
255
255
255
255
255
255
255
255
255
255
255
255
255
255
255
255
255
255
255
255
255
255
255
255
255
255
255
255
255
255
255
255
255
255
255
255
255
255
255
255
220
199
188
240
255
235
157
114
126
130
141
117
123
184
122
123
123
203
150
252
255
253
237
227
228
225
94
226
247
83
220
254
255
255
255
255
255
253
189
116
141
147
127
114
113
126
148
156
156
204
255
255
254
201
200
236
255
255
255
255
255
255
255
255
255
255
255
255
255
255
255
255
255
255
255
255
255
255
255
255
255
255
255
255
255
255
255
255
255
255
255
255
255
255
255
255
255
255
255
255
255
255
252
255
221
147
147
146
146
148
133
117
131
115
113
128
119
114
127
153
175
159
142
158
152
142
80
228
248
74
136
154
164
189
222
236
201
146
131
143
126
113
113
119
143
156
156
163
218
255
255
255
255
241
224
255
255
255
255
255
255
255
255
255
255
255
255
255
255
255
255
255
255
255
255
255
255
255
255
255
255
255
255
255
255
255
255
255
255
255
255
255
255
255
255
255
255
255
255
255
255
255
255
252
193
194
173
213
215
157
150
150
156
154
127
142
148
131
134
156
154
184
244
231
185
132
80
230
247
73
163
213
234
223
190
147
154
138
123
113
113
121
138
155
156
155
147
169
195
237
255
255
255
255
255
255
255
255
255
255
255
255
255
255
255
255
255
255
255
255
255
255
255
255
255
255
255
255
255
255
255
255
255
255
255
255
255
255
255
255
255
255
255
255
255
255
255
255
255
255
255
255
255
255
255
254
254
248
182
156
159
218
190
146
149
163
156
143
163
214
233
225
178
157
200
205
80
234
227
70
192
173
159
201
248
240
164
148
147
146
152
156
155
145
130
131
146
158
186
207
245
255
255
255
255
255
255
255
255
255
255
255
255
255
255
255
255
255
255
255
255
255
255
255
255
255
255
255
255
255
255
255
255
255
255
255
255
255
255
255
255
255
255
255
255
255
255
255
255
255
255
255
255
255
255
255
255
233
177
185
234
235
163
152
170
236
156
154
232
250
177
152
181
243
182
92
122
249
153
70
158
254
232
169
168
236
253
188
137
143
143
134
129
136
152
159
196
241
255
255
255
255
255
255
255
255
255
255
255
255
255
255
255
255
255
255
255
255
255
255
255
255
255
255
255
255
255
255
255
255
255
255
255
255
255
255
255
255
255
255
255
255
255
255
255
255
255
255
255
255
255
255
255
255
255
255
255
255
255
255
255
178
156
165
239
187
157
211
255
234
160
208
248
138
94
188
254
183
73
125
70
124
217
247
151
160
255
255
226
162
149
154
156
168
205
245
255
255
255
255
255
255
255
255
255
255
255
255
255
255
255
255
255
255
255
255
255
255
255
255
255
255
255
255
255
255
255
255
255
255
255
255
255
255
255
255
255
255
255
255
255
255
255
255
255
255
255
255
255
255
255
255
255
255
255
255
255
255
255
255
255
245
228
249
255
222
237
255
255
255
255
253
131
113
237
247
143
70
113
253
206
125
74
123
237
254
255
255
255
253
227
217
234
254
255
255
255
255
255
255
255
255
255
255
255
255
255
255
255
255
255
255
255
255
255
255
255
255
255
255
255
255
255
255
255
255
255
255
255
255
255
255
255
255
255
255
255
255
255
255
255
255
255
255
255
255
255
255
255
255
255
255
255
255
255
255
255
255
255
255
255
255
255
255
255
255
255
255
255
255
255
176
87
232
247
114
74
163
88
135
226
253
218
94
99
237
255
255
255
255
255
255
255
255
255
255
255
255
255
255
255
255
255
255
255
255
255
255
255
255
255
255
255
255
255
255
255
255
255
255
255
255
255
255
255
255
255
255
255
255
255
255
255
255
255
255
255
255
255
255
255
255
255
255
255
255
255
255
255
255
255
255
255
255
255
255
255
255
255
255
255
255
255
255
255
255
255
255
255
255
253
181
233
255
159
72
194
255
211
121
82
105
203
240
228
235
255
255
255
255
255
255
255
255
255
255
255
255
255
255
255
255
255
255
255
255
255
255
255
255
255
255
255
255
255
255
255
255
255
255
255
255
255
255
255
255
255
255
255
255
255
255
255
255
255
255
255
255
255
255
255
255
255
255
255
255
255
255
255
255
255
255
255
255
255
255
255
255
255
255
255
255
255
255
255
255
255
255
255
255
255
255
255
255
233
179
255
255
255
255
228
144
244
255
255
255
255
255
255
255
255
255
255
255
255
255
255
255
255
255
255
255
255
255
255
255
255
255
255
255
255
255
255
255
255
255
255
255
255
255
255
255
255
255
255
255
255
255
