P2

10 7
255

255	255	255	255	255	255	255	255	255	255	
255	0	0	0	255	255	164	164	164	255
255	0	255	0	255	255	164	255	255	255
255	0	0	0	255	255	164	164	255	255
255	0	255	0	255	255	164	255	255	255
255	0	255	0	255	255	164	164	164	255
255	255	255	255	255	255	255	255	255	255
