P2
# CREATOR: GIMP PNM Filter Version 1.1
100 114
255
180
180
170
156
150
118
64
45
16
18
28
49
85
119
132
147
160
169
174
187
193
209
211
212
224
225
216
209
206
215
224
218
225
213
213
219
222
221
216
212
212
216
217
214
221
222
221
219
208
207
210
202
205
204
202
195
193
190
197
193
184
180
180
170
155
145
141
135
124
118
117
110
88
82
80
59
47
58
40
33
43
31
27
30
32
20
16
14
17
26
18
20
21
10
10
15
14
14
15
21
179
179
177
148
147
80
17
15
11
11
11
53
100
119
138
145
154
166
176
183
185
202
208
202
217
219
218
208
206
228
222
213
217
211
208
219
219
213
202
221
214
217
217
218
215
218
216
223
215
213
210
204
206
207
201
195
197
199
200
193
193
190
175
175
160
149
142
137
124
120
117
109
97
81
83
61
61
55
50
37
33
31
31
27
19
16
13
12
23
16
10
11
24
12
11
9
14
9
13
17
186
170
168
145
115
26
12
19
12
7
18
46
93
114
136
146
157
163
176
182
189
211
210
208
210
219
225
218
202
216
220
205
222
212
213
216
216
216
211
208
203
213
209
213
221
218
214
219
211
210
207
209
212
201
200
204
196
200
204
202
190
188
184
182
164
147
144
134
127
120
116
114
105
93
82
73
64
58
46
58
44
33
36
31
16
20
21
14
26
22
29
30
13
16
14
10
16
16
11
15
182
169
164
139
60
14
11
20
10
16
32
72
101
112
137
145
157
168
179
186
195
213
210
207
213
220
218
210
214
213
222
202
206
204
209
215
213
218
197
216
216
202
202
209
216
222
220
221
210
209
211
211
209
203
197
199
201
207
197
194
191
182
180
173
167
151
141
133
125
122
114
113
96
92
88
72
67
68
49
42
53
42
30
20
17
24
20
18
22
20
27
37
23
23
13
15
13
17
13
13
194
164
159
86
22
17
15
18
14
16
46
80
102
128
132
148
157
162
178
188
194
206
207
205
214
211
211
210
217
216
214
198
219
215
209
216
216
221
203
218
213
216
197
214
209
216
210
214
210
213
208
209
202
204
201
204
201
200
195
193
187
180
182
172
165
148
145
139
135
123
119
120
106
101
89
93
76
79
52
49
45
36
31
29
23
23
27
25
20
21
37
70
38
33
30
11
11
12
10
20
197
180
100
59
33
12
7
11
10
28
58
90
119
134
139
140
157
167
185
196
196
197
208
207
205
215
211
209
214
222
218
202
212
205
210
219
208
215
201
227
210
213
205
213
202
209
207
213
210
212
206
207
205
203
199
191
196
195
195
189
188
185
170
172
168
151
153
141
141
130
122
114
102
101
96
89
92
65
59
55
54
36
32
27
21
18
27
26
24
22
31
29
36
25
31
14
13
14
11
19
178
136
85
71
37
16
16
7
12
32
63
96
109
134
145
144
161
164
170
185
192
201
209
203
205
209
216
207
211
221
214
206
208
204
213
201
206
216
214
221
224
215
211
213
209
209
209
209
198
203
205
208
204
196
195
190
196
193
191
187
189
173
167
169
165
148
156
143
137
130
122
125
118
102
90
91
95
79
62
59
48
42
37
36
27
26
26
31
22
27
29
29
30
12
18
16
18
19
18
19
167
94
108
89
35
8
8
7
13
32
55
97
117
136
142
152
165
180
173
185
196
190
215
207
209
204
217
210
204
213
205
194
216
200
207
201
191
215
207
223
218
222
213
218
212
204
209
208
210
206
208
202
204
194
195
193
199
193
183
183
185
172
169
167
168
159
154
137
137
133
133
128
116
106
105
100
97
93
79
53
53
50
43
34
32
32
27
20
24
33
26
11
16
21
12
18
18
21
16
16
114
116
117
105
57
15
19
13
10
30
61
98
122
131
138
155
166
166
181
184
194
194
203
211
206
209
209
206
213
209
209
197
210
196
212
189
195
215
203
216
212
225
210
211
207
208
208
209
201
205
210
202
203
191
189
199
192
190
186
177
181
167
158
161
168
152
156
143
143
135
133
129
119
109
105
100
95
87
88
69
62
47
47
35
38
33
45
25
27
36
21
16
20
14
29
8
6
14
15
18
129
131
122
109
45
13
14
16
15
33
64
96
111
138
142
162
169
175
174
177
192
199
213
204
202
192
204
207
207
194
214
192
209
199
204
200
181
205
195
218
211
210
211
205
208
205
205
202
200
210
211
205
201
195
190
195
195
186
184
172
180
170
159
175
167
167
155
146
147
138
129
129
125
124
123
107
105
86
77
73
75
68
60
49
32
34
42
27
27
28
21
17
14
17
22
18
14
17
16
21
146
125
116
99
45
17
11
17
15
44
67
95
109
142
148
159
158
153
183
184
181
192
206
197
201
204
186
204
203
199
190
191
207
196
201
187
206
201
202
215
207
213
200
203
208
199
206
207
203
208
212
201
205
196
192
192
181
186
187
171
174
171
168
166
164
170
153
153
148
131
143
137
129
124
125
115
101
106
86
88
81
74
68
56
55
45
41
26
21
23
23
25
17
13
15
17
8
11
14
19
128
128
103
85
33
11
8
15
12
56
66
98
116
137
149
157
169
165
163
187
196
205
209
207
196
199
191
210
197
209
207
202
194
197
209
200
196
207
201
204
205
213
204
207
208
203
206
203
205
202
201
196
182
187
194
185
176
179
182
171
170
169
169
164
163
165
159
158
154
146
144
133
139
139
129
118
120
107
107
107
100
88
75
73
75
57
45
29
37
26
12
13
16
10
13
11
10
19
19
18
140
116
78
53
24
10
18
23
20
56
85
97
119
136
145
165
166
177
186
195
196
199
210
199
199
180
196
208
200
201
200
195
197
203
204
202
196
210
192
198
208
202
206
196
215
203
204
208
208
201
202
200
188
195
189
190
185
180
186
180
182
170
166
167
168
166
155
157
157
147
143
132
139
137
136
124
125
118
111
102
106
103
82
85
77
68
48
31
32
31
17
16
18
13
15
22
12
15
14
26
107
78
56
41
16
21
16
24
14
55
83
109
130
145
150
167
171
179
175
188
192
201
205
191
196
200
200
212
212
203
202
203
193
204
199
204
199
198
191
195
205
211
202
213
207
210
210
200
206
197
192
197
197
195
192
185
181
181
184
176
181
179
172
176
180
171
160
162
149
156
155
148
150
141
133
132
127
119
129
116
125
106
110
105
89
71
53
37
27
35
13
16
20
19
16
15
17
8
17
18
70
44
46
47
25
17
14
21
22
70
95
113
117
148
152
168
171
188
175
192
196
200
199
207
200
197
189
208
200
205
198
203
202
209
200
195
200
191
197
198
192
204
201
202
214
205
204
200
200
203
206
197
185
190
185
190
183
182
176
170
170
176
164
184
172
163
155
163
152
157
165
159
158
145
147
129
130
131
132
122
125
115
110
119
101
66
52
44
26
21
14
13
24
24
23
18
15
13
19
18
49
34
44
32
29
8
17
16
33
72
105
114
114
130
151
154
164
173
180
190
197
192
198
197
200
201
190
210
197
209
199
198
199
203
195
199
203
198
197
196
195
205
197
204
213
208
201
197
200
205
209
197
198
190
200
191
195
192
186
177
178
177
178
172
180
180
167
174
164
158
172
172
158
151
158
144
131
148
133
127
132
117
111
111
97
82
68
49
31
27
24
19
28
29
33
24
22
24
22
22
52
40
56
30
20
18
18
10
32
85
114
123
124
135
151
166
171
177
180
187
188
188
191
199
196
202
202
199
206
206
196
202
210
206
202
207
200
199
196
193
203
205
194
202
200
197
205
208
211
208
209
197
202
205
201
187
197
185
172
192
174
187
180
177
182
183
168
177
169
172
164
170
161
153
148
149
149
147
142
145
121
125
114
113
98
87
60
43
43
38
28
17
19
20
34
33
32
22
30
23
52
43
44
36
22
21
11
7
49
95
112
128
152
158
161
167
178
182
185
184
200
190
198
194
181
198
202
206
222
208
205
203
207
202
204
206
201
201
208
192
200
201
200
204
209
205
215
208
211
210
213
196
202
207
207
193
194
189
201
178
171
186
180
185
177
178
179
177
181
179
170
171
170
165
164
158
154
148
143
146
137
126
120
108
100
89
67
44
46
45
26
32
21
24
24
31
23
19
23
22
38
40
42
33
21
14
12
13
44
91
106
121
139
143
155
159
184
168
190
185
199
202
185
189
179
201
197
200
207
204
209
203
214
207
208
201
201
203
201
204
202
207
206
206
209
208
204
196
210
197
204
188
198
193
203
188
196
179
201
192
185
199
185
190
183
180
174
185
177
177
168
177
179
176
170
162
155
159
158
157
137
129
127
109
96
77
73
56
44
34
20
24
19
19
22
19
12
12
19
12
38
37
48
38
18
11
11
10
63
94
111
143
145
150
140
163
166
162
184
168
177
187
182
189
181
199
206
202
213
199
217
204
212
210
202
203
208
196
206
205
200
202
202
204
212
200
197
195
207
194
203
186
186
188
203
187
198
187
203
185
185
177
182
195
188
188
183
171
179
180
179
173
173
168
171
168
161
153
156
146
139
135
126
117
111
88
61
51
46
37
24
17
12
17
25
14
15
12
11
15
37
34
37
22
16
10
9
14
59
102
122
152
146
143
150
158
167
175
182
187
176
172
185
183
182
190
180
196
204
211
209
197
213
203
199
204
205
206
209
200
208
208
206
210
208
202
202
201
214
192
197
189
196
198
200
187
196
192
200
190
194
191
193
188
188
188
183
179
170
184
185
177
179
178
167
166
160
156
154
146
137
130
122
111
100
83
60
52
43
36
26
30
19
19
16
13
5
9
14
18
39
40
35
21
14
8
10
12
54
90
116
145
144
155
159
174
170
188
198
196
196
192
200
197
194
192
204
184
196
211
204
196
210
206
202
205
198
213
203
212
207
205
203
203
209
198
200
193
202
200
197
189
191
191
201
189
194
192
201
191
195
185
193
188
192
184
179
176
170
181
167
172
182
175
163
155
168
145
152
145
139
128
119
112
97
77
71
48
38
37
30
34
12
19
13
16
7
16
12
14
28
36
27
13
5
10
13
9
39
90
120
130
139
151
157
165
181
176
178
190
189
180
191
193
184
198
201
189
200
208
196
193
201
201
202
195
195
207
204
211
207
205
204
205
200
201
203
195
200
202
198
196
179
185
188
181
183
186
186
192
191
189
182
189
177
184
185
173
174
169
176
160
173
179
175
154
156
148
144
142
140
128
120
115
102
70
65
43
41
30
22
17
18
14
8
16
7
10
8
18
45
29
46
15
6
7
6
11
40
108
120
134
141
160
163
185
185
196
195
208
208
196
189
193
202
196
201
202
204
198
199
194
207
188
201
199
211
205
207
203
201
193
204
197
205
195
202
199
193
193
178
176
174
177
174
168
168
183
179
191
183
179
176
173
173
182
180
176
174
171
165
170
157
167
155
147
143
142
138
147
131
120
128
110
85
70
53
52
31
25
21
22
21
13
15
17
12
12
13
11
35
29
49
17
7
8
8
9
51
97
117
131
151
159
164
176
186
193
181
188
189
187
174
180
198
201
198
184
198
198
199
204
187
198
204
191
194
208
204
197
204
201
200
200
202
198
187
186
181
173
166
157
147
161
160
161
165
173
169
176
161
171
173
178
179
174
179
174
174
167
159
165
163
162
162
149
140
140
142
135
140
129
109
108
84
58
46
35
34
25
21
16
12
14
10
18
9
6
9
13
33
37
38
13
14
15
12
12
55
90
123
132
148
144
169
183
181
192
186
186
189
188
183
169
175
184
190
183
190
197
199
200
202
196
197
190
199
199
192
203
207
201
195
199
197
188
180
174
159
151
146
144
140
146
152
151
152
160
162
170
171
166
166
170
168
169
161
166
171
168
153
158
158
147
150
143
125
126
126
126
119
99
111
88
81
63
60
45
31
32
19
16
11
15
15
15
14
13
6
10
34
28
42
18
13
8
9
8
36
91
110
122
140
151
160
156
168
188
177
179
178
183
172
171
175
179
179
178
188
194
191
196
195
183
191
189
202
199
198
200
202
200
197
191
195
171
167
162
146
141
136
130
130
138
142
137
141
154
154
160
155
150
159
151
158
158
155
165
160
141
145
148
134
142
135
134
125
124
118
120
112
101
102
95
91
68
57
44
27
32
23
21
13
15
18
13
17
17
17
14
25
20
39
22
12
2
10
8
38
71
106
131
163
168
162
168
178
182
161
181
172
166
164
152
159
168
157
170
182
182
191
195
200
187
197
191
190
188
197
196
199
192
191
178
177
151
144
140
132
128
124
124
121
130
134
126
134
140
143
147
139
140
142
140
148
142
142
142
142
130
139
136
129
131
124
126
120
115
105
106
106
96
101
88
76
56
51
42
33
17
27
9
13
9
12
11
13
10
9
10
16
14
20
15
7
6
9
9
21
66
111
149
151
160
159
171
166
170
165
167
155
157
151
147
148
141
143
144
162
168
188
192
187
188
193
179
195
192
197
191
202
186
187
167
146
144
132
127
105
110
103
107
111
111
122
117
122
122
130
128
122
132
128
121
127
128
122
129
132
130
126
123
114
110
111
112
95
97
97
99
91
89
97
97
79
65
57
47
31
32
22
20
13
20
7
9
13
12
20
16
23
6
7
9
7
8
10
8
19
57
101
130
137
160
173
160
158
153
150
147
134
140
137
141
125
128
126
127
140
154
166
185
188
190
190
188
183
185
190
201
189
186
177
165
137
113
105
105
93
95
95
90
98
99
106
109
114
110
110
110
114
102
113
99
107
105
108
112
111
112
107
106
100
95
90
90
82
88
87
93
88
90
89
86
81
75
60
59
39
31
27
14
23
22
25
11
14
13
16
13
15
12
8
10
10
7
4
6
18
43
116
125
153
153
148
152
139
144
144
138
136
117
121
111
112
104
115
109
118
137
150
174
183
184
193
178
180
179
185
180
177
180
164
150
133
114
93
88
80
78
81
81
91
84
93
89
101
86
96
96
96
92
84
72
64
79
69
82
83
93
70
83
72
78
67
72
68
67
75
74
88
82
81
87
84
71
61
55
36
22
20
19
14
14
23
17
13
9
12
12
30
28
7
9
10
4
3
5
18
48
86
109
128
139
132
131
131
121
117
114
105
97
102
90
91
96
99
97
105
111
138
145
169
173
182
178
184
183
178
177
172
170
153
136
113
93
79
71
61
71
60
68
84
86
92
82
97
108
125
130
122
108
91
78
62
43
35
43
53
52
44
45
37
42
56
40
49
47
48
65
78
78
77
78
72
72
70
69
37
26
29
13
9
14
12
12
13
12
17
11
35
28
12
24
20
10
5
8
25
41
81
91
91
116
102
115
98
90
84
80
75
74
92
86
84
86
83
85
101
102
114
124
142
187
186
177
179
192
171
178
167
155
141
122
99
71
75
59
52
39
52
69
83
98
114
151
157
171
168
175
174
165
149
141
122
101
69
36
29
27
29
25
33
30
32
31
26
42
50
55
70
71
75
77
78
68
70
63
44
25
36
21
17
22
24
17
17
14
21
25
31
32
22
27
15
13
6
5
8
43
51
79
84
88
71
73
58
56
93
120
136
141
155
155
150
139
140
98
91
88
112
114
141
171
178
172
171
182
180
166
165
153
133
110
80
68
64
45
41
42
66
77
113
143
159
166
172
145
154
163
159
148
137
131
124
115
99
75
50
21
16
21
30
25
16
23
22
41
40
60
76
87
93
88
86
83
82
72
64
56
41
32
20
15
18
20
21
13
11
21
42
46
41
24
11
19
8
7
15
45
43
64
50
54
40
37
60
111
153
170
164
160
161
152
136
141
140
140
128
92
84
102
131
161
174
170
173
175
182
169
167
146
128
100
74
67
44
43
43
51
72
93
131
155
150
141
120
115
86
73
65
54
42
62
74
78
94
91
77
51
29
17
23
30
24
15
20
41
51
77
100
103
99
103
107
96
81
65
57
37
41
28
20
25
8
14
19
20
14
20
63
33
28
19
25
23
8
6
15
53
36
34
28
47
29
46
96
122
109
129
116
87
66
60
58
67
79
103
122
120
100
98
120
147
164
178
187
179
181
176
159
144
115
85
75
68
43
45
43
71
100
118
141
126
113
104
80
65
33
24
16
9
8
10
19
24
43
62
63
53
33
22
33
26
28
25
29
50
75
101
111
129
118
121
113
95
96
76
61
53
30
36
23
16
10
13
13
20
11
19
50
31
30
14
38
21
9
9
7
39
58
35
20
37
21
69
104
78
64
50
50
36
23
21
15
9
11
39
73
112
121
103
105
134
155
183
185
187
188
172
157
140
106
69
65
85
57
40
66
92
112
110
115
106
105
113
118
123
36
26
17
6
11
19
28
20
15
22
35
58
31
25
34
31
29
43
53
69
111
126
129
132
134
124
119
96
95
82
55
52
38
32
25
23
18
11
15
25
17
21
36
26
18
21
23
15
9
13
13
48
48
35
21
33
23
73
35
29
46
86
113
85
27
16
8
7
9
21
24
70
105
124
113
113
155
182
199
185
186
177
156
139
107
68
75
101
73
59
110
109
109
107
114
135
166
171
184
160
57
41
22
16
13
45
34
30
28
32
44
30
40
36
50
52
78
95
113
132
131
155
155
152
140
135
118
111
91
85
65
59
42
32
21
23
24
14
12
22
19
27
31
17
19
14
10
10
6
5
13
49
61
60
39
40
35
38
33
62
112
136
143
105
36
17
8
4
13
29
46
64
80
123
138
116
157
180
191
192
194
172
153
136
86
60
55
97
61
97
121
107
125
138
162
184
191
176
185
172
90
49
55
41
62
101
45
51
43
62
92
91
87
83
106
121
136
133
162
155
165
164
161
159
138
132
121
102
100
75
63
53
42
31
26
23
13
11
9
18
24
33
34
29
20
11
7
6
6
8
13
52
119
109
84
64
48
43
76
109
137
157
156
131
57
49
49
37
69
68
56
84
112
126
153
140
148
186
202
199
191
182
155
132
90
67
77
79
82
105
130
142
142
158
183
187
198
185
184
180
153
92
89
95
100
87
90
102
119
125
124
124
118
132
155
167
166
177
170
164
171
168
157
162
141
137
118
103
97
83
66
62
38
32
27
20
16
11
5
13
31
36
27
23
19
11
8
7
3
7
10
84
124
140
133
112
107
114
131
133
151
153
159
154
107
49
69
97
113
99
103
127
140
148
161
143
161
192
203
197
197
180
154
129
108
75
73
93
99
108
124
147
152
163
186
182
195
190
179
190
189
164
133
139
151
144
156
152
140
135
127
129
128
144
158
154
166
175
171
178
175
171
174
158
151
138
128
110
97
80
75
61
38
33
21
18
16
11
9
14
28
36
25
27
10
5
13
15
6
8
19
90
113
137
154
134
117
125
140
154
162
173
171
181
164
154
171
167
168
148
143
146
156
156
156
153
171
193
202
205
186
188
146
136
102
86
85
94
94
100
125
144
163
166
167
181
187
178
179
183
181
176
169
159
160
161
148
135
141
134
115
124
133
145
160
154
161
177
167
187
184
174
169
161
157
140
128
113
106
82
71
40
36
36
16
18
17
11
18
17
18
35
43
33
12
6
10
11
6
7
22
91
117
143
142
121
114
142
156
168
172
168
179
178
168
168
140
131
128
121
132
138
150
141
153
158
171
195
206
209
198
189
152
134
115
95
94
98
108
111
120
136
158
151
156
163
179
177
175
166
161
167
165
156
150
152
143
131
126
118
116
121
138
136
156
162
175
185
179
185
183
172
176
155
156
147
131
110
92
80
67
50
37
30
21
17
14
13
13
12
19
40
35
13
8
5
8
2
4
7
31
109
113
149
149
175
127
157
151
150
162
158
154
158
156
143
121
119
105
113
128
142
159
149
163
180
173
192
200
203
201
184
159
126
102
104
98
101
105
110
130
131
150
153
157
157
164
171
165
169
160
156
151
147
150
154
143
126
129
116
123
136
151
166
170
171
180
182
178
186
191
173
168
154
158
133
126
112
88
77
67
43
22
27
9
15
11
4
9
5
8
31
18
9
10
11
7
4
5
6
47
118
132
123
138
150
159
152
154
139
147
148
142
129
128
121
99
89
93
121
139
146
166
173
166
170
178
189
195
203
195
188
153
140
108
100
103
103
124
113
126
147
156
165
171
169
167
166
156
151
147
133
135
138
131
128
119
114
125
139
149
163
174
172
169
183
184
186
187
189
178
173
165
152
146
143
127
101
84
80
65
48
29
13
12
11
8
10
7
10
11
21
24
10
8
21
7
6
5
6
46
123
135
158
167
171
168
164
168
147
136
148
135
126
125
113
110
117
124
139
151
164
176
181
174
169
178
190
194
196
198
186
158
135
112
105
109
114
128
118
133
142
157
169
181
166
174
171
163
159
141
149
147
153
142
147
154
160
166
184
188
190
185
178
183
193
184
188
184
186
172
168
160
150
145
141
116
107
90
70
47
42
31
21
9
13
9
8
8
10
10
19
36
13
10
17
7
7
5
5
54
132
166
162
164
177
179
190
180
178
188
176
183
169
170
151
159
155
161
171
181
188
192
194
174
181
175
176
179
191
199
176
169
137
132
111
115
121
121
125
149
159
172
175
194
186
191
187
186
191
174
194
184
178
181
194
199
195
202
197
194
200
188
189
185
187
188
179
173
182
171
164
158
148
151
129
117
101
77
56
40
46
29
21
18
11
6
5
9
7
7
17
33
11
7
6
3
5
4
6
62
132
156
143
170
170
186
187
190
193
188
189
190
192
183
177
169
176
182
183
186
188
196
178
167
186
184
182
197
187
197
174
162
136
129
119
113
124
122
129
153
166
172
184
193
184
198
208
201
196
203
202
209
203
211
206
211
211
201
203
193
203
201
199
186
190
185
176
172
161
155
158
147
147
145
139
114
102
83
69
46
38
27
16
8
9
10
13
15
9
16
14
30
24
19
7
2
5
7
3
68
119
148
151
182
193
176
199
189
198
200
203
202
196
192
179
180
193
190
196
185
191
183
181
162
175
177
172
198
189
190
173
166
145
139
137
129
129
141
134
148
170
165
181
190
196
205
199
203
199
217
213
215
212
204
210
214
201
201
175
204
200
197
195
187
182
177
169
172
161
150
151
143
141
132
123
108
102
79
68
50
31
29
18
7
10
9
12
13
12
8
14
16
17
10
4
4
2
7
10
61
124
149
164
159
184
179
188
199
197
193
199
193
192
197
185
191
188
202
195
190
189
191
179
181
173
186
188
190
195
194
183
166
150
153
138
136
146
140
146
153
170
176
191
198
202
212
213
200
209
214
206
219
213
217
220
214
198
202
208
196
206
194
193
191
181
173
172
172
156
153
147
136
136
134
117
103
89
68
57
48
34
33
13
14
14
8
5
12
4
6
15
15
8
15
10
3
6
11
7
48
124
146
164
163
186
177
195
186
198
192
186
195
194
198
197
190
193
197
195
194
192
182
177
183
186
192
196
182
197
186
177
171
153
147
142
141
144
151
165
152
164
170
187
189
197
205
211
208
199
215
204
216
216
211
214
212
209
208
212
205
204
194
186
186
180
173
172
166
158
152
152
132
141
129
120
115
56
76
49
50
37
30
14
12
13
3
5
9
5
8
20
14
8
6
6
3
7
8
4
47
117
140
155
158
164
159
189
187
176
183
188
201
198
211
199
199
201
184
193
200
197
179
187
192
192
186
195
197
194
181
172
164
159
164
138
141
144
159
152
151
167
174
194
202
204
203
208
210
204
209
183
216
215
216
212
206
200
205
203
193
201
195
189
177
174
167
162
160
146
151
141
137
128
118
109
94
76
67
48
44
21
15
17
14
16
6
6
5
4
7
11
16
9
7
4
8
5
3
10
39
112
138
146
158
166
176
179
174
178
191
194
189
185
191
191
172
189
200
188
192
188
180
181
181
184
193
201
201
207
189
172
161
155
154
143
132
141
158
166
158
160
168
188
192
200
200
203
197
190
203
206
208
219
213
203
181
210
205
200
198
193
191
186
181
170
153
161
158
145
145
144
126
126
112
107
91
82
61
47
38
17
25
16
13
14
4
12
14
13
5
14
25
10
7
8
6
7
8
8
32
101
127
150
149
153
152
174
157
185
176
189
199
197
209
192
199
204
204
201
189
190
181
182
185
192
192
201
209
208
194
176
160
171
166
142
150
153
156
164
162
166
187
185
184
196
207
199
199
204
209
204
196
211
207
209
204
206
203
194
192
193
198
179
176
171
163
157
154
155
143
140
128
124
108
106
87
77
63
34
33
25
16
13
14
8
8
13
7
11
8
11
20
16
13
7
5
7
5
7
17
87
126
141
157
173
154
166
172
175
184
195
202
198
199
202
202
202
205
198
186
182
187
182
182
185
199
197
204
205
202
182
169
164
155
150
152
149
170
166
169
170
172
189
182
195
191
181
192
202
187
206
192
214
208
199
202
188
190
198
197
194
192
181
170
170
162
154
151
139
137
130
124
116
105
109
86
72
50
42
31
21
22
16
10
8
8
26
10
9
9
11
14
31
12
12
14
8
5
7
20
76
118
147
146
158
169
175
172
175
190
191
195
198
192
202
206
197
201
197
185
190
181
195
188
182
204
203
213
197
197
177
169
159
151
150
129
139
159
173
167
168
169
190
183
183
191
200
191
194
195
200
196
200
201
205
201
199
200
195
190
187
182
174
165
170
162
153
150
137
125
122
126
110
105
91
78
65
44
35
25
19
18
19
14
11
9
24
13
7
10
13
23
25
18
18
10
8
4
6
14
58
110
139
150
163
180
184
188
190
176
173
195
208
189
196
201
206
198
192
186
187
176
196
200
186
214
207
208
194
190
181
173
156
138
159
127
148
133
161
161
162
181
188
192
197
194
192
167
191
200
201
203
197
207
199
195
188
190
191
196
194
182
178
169
161
153
143
140
126
128
116
115
102
100
91
70
52
51
47
34
27
23
16
20
10
10
14
9
8
19
11
30
24
22
29
12
9
8
5
7
49
101
131
153
171
180
180
190
192
194
184
199
213
199
194
197
189
175
188
186
197
180
189
194
182
196
202
201
205
189
179
175
159
165
136
143
133
145
150
148
160
183
187
185
189
189
205
192
191
200
190
208
200
202
187
198
191
187
185
184
186
177
175
167
163
146
141
132
128
124
114
118
112
97
94
75
61
53
39
34
16
10
12
15
9
11
10
13
11
13
19
33
19
25
30
22
12
8
4
6
42
87
133
156
158
178
179
189
193
193
193
199
192
186
203
188
193
191
191
181
179
185
185
193
180
205
203
197
197
187
172
170
161
164
144
154
131
150
141
163
160
184
179
185
186
186
195
187
191
196
179
194
200
202
190
189
193
189
190
185
182
173
165
165
159
147
146
132
130
121
119
115
102
94
83
68
59
50
35
27
29
13
7
8
4
8
11
5
8
9
17
33
23
31
33
23
12
8
7
6
42
86
125
137
160
171
177
182
179
188
189
191
188
193
199
188
192
192
188
180
183
177
182
182
183
186
199
191
188
182
172
170
171
158
155
139
140
149
138
157
153
172
176
184
173
177
180
192
187
201
200
191
201
201
194
186
190
184
192
181
180
170
164
162
155
144
136
129
126
118
113
101
100
91
81
62
53
42
34
31
22
15
17
5
6
11
9
7
7
9
18
44
27
16
17
21
13
4
2
6
32
82
110
125
151
169
182
180
184
166
183
168
190
179
190
189
191
181
180
182
165
170
177
186
181
194
203
194
179
183
165
171
158
152
148
145
129
133
132
136
154
161
179
185
181
181
193
178
190
189
190
192
193
196
188
186
187
180
189
182
178
168
160
160
144
143
135
124
126
108
111
102
94
75
70
52
56
33
25
29
17
14
18
14
14
13
9
8
9
17
17
36
27
19
14
10
6
7
8
10
21
69
100
134
148
172
176
178
186
176
191
180
184
194
195
196
195
192
180
181
169
173
175
184
178
202
190
205
200
199
169
163
159
137
134
132
131
125
128
130
138
159
165
189
177
186
191
180
192
184
199
194
198
184
188
181
179
180
176
176
170
167
159
155
146
133
122
124
103
98
108
96
90
79
65
54
61
38
25
17
23
22
17
8
9
7
5
8
17
21
30
18
28
15
13
11
8
13
5
7
8
63
99
123
149
166
173
182
178
176
184
164
181
184
196
188
189
188
181
175
168
181
173
188
187
210
197
192
194
188
169
164
157
143
152
142
139
133
138
125
141
171
183
182
170
188
194
190
190
186
189
192
202
192
185
179
177
175
179
174
168
162
155
143
146
125
119
117
110
106
84
91
79
68
64
46
32
34
25
25
21
16
11
4
16
10
4
14
15
9
28
26
19
11
11
18
11
8
6
8
18
47
92
119
133
156
163
167
169
182
186
186
186
185
185
180
184
178
175
178
159
176
180
179
191
207
209
202
195
180
159
141
147
143
152
156
138
147
139
135
133
154
185
188
180
188
188
178
181
182
193
197
195
186
190
183
176
174
169
165
171
156
145
139
136
121
120
111
113
97
94
82
79
74
66
42
39
24
23
24
15
7
9
7
6
9
7
10
7
11
16
21
7
6
8
8
6
2
5
6
17
37
89
114
130
136
152
160
176
178
182
194
181
178
176
173
174
170
170
167
153
158
173
179
201
194
198
199
191
180
156
173
149
143
135
138
147
138
135
125
120
148
190
181
189
176
181
183
187
186
181
195
199
191
182
183
171
163
162
163
166
151
151
142
130
116
118
114
100
90
105
81
75
70
62
51
39
30
25
20
21
15
11
11
7
6
7
12
9
14
12
32
10
15
3
4
2
1
3
7
13
22
78
103
129
127
141
155
169
168
180
173
186
184
184
165
170
171
174
168
156
161
175
188
201
202
194
196
186
176
166
147
140
121
135
130
135
125
122
119
105
127
178
189
192
187
191
192
190
186
193
189
191
193
186
180
162
168
165
158
153
147
137
130
125
113
114
101
99
81
90
82
79
66
65
36
32
32
29
23
20
12
14
15
13
4
12
14
5
8
11
30
18
20
10
7
6
4
5
7
8
16
62
108
119
121
143
145
170
165
172
182
176
174
178
169
167
168
166
160
145
141
166
186
196
191
185
187
174
161
141
125
108
99
105
108
107
109
111
105
93
120
173
187
186
189
198
194
191
191
186
181
191
181
183
173
172
173
156
152
153
146
140
134
130
111
110
97
99
83
77
76
73
66
61
41
33
33
22
16
17
12
10
15
12
10
23
12
7
8
14
23
16
12
4
9
3
2
1
2
4
13
57
87
108
119
130
145
157
160
165
166
170
164
170
165
167
171
175
172
131
130
142
174
182
184
182
173
150
134
119
81
67
85
81
85
80
84
84
70
80
104
167
184
191
179
193
199
185
193
188
189
183
178
181
172
172
162
163
152
149
141
134
122
114
112
102
97
85
78
81
76
62
62
56
37
40
34
28
22
14
16
11
12
13
8
6
7
5
7
8
30
9
7
5
8
10
10
3
6
8
8
38
82
103
119
120
136
144
161
169
164
162
159
165
160
159
166
177
174
153
93
105
143
170
167
173
153
134
108
80
65
44
43
39
42
37
60
51
49
65
106
170
181
194
187
195
198
190
187
176
175
178
170
175
168
170
162
156
147
145
135
127
125
116
113
98
87
76
80
70
72
58
54
41
37
43
32
31
25
21
11
7
6
8
13
5
9
10
9
13
24
6
10
6
3
7
8
9
4
7
5
31
71
99
114
116
127
134
152
153
163
156
165
162
172
173
171
187
186
173
131
104
110
156
147
153
129
99
84
68
50
23
15
17
23
26
37
32
32
57
118
161
171
188
187
198
192
188
189
182
181
172
162
170
163
163
146
152
138
140
128
128
126
113
105
105
87
89
83
71
68
43
44
49
44
35
30
25
18
12
10
6
5
7
14
5
5
7
10
12
15
7
6
6
6
2
7
11
4
5
3
26
56
93
103
115
127
135
146
156
151
152
155
159
172
176
175
185
186
183
184
162
126
119
114
119
100
80
63
51
21
14
25
22
17
33
24
26
43
64
124
154
179
186
183
192
185
189
183
183
168
179
160
163
152
158
149
145
132
133
123
124
117
113
99
108
91
92
93
82
67
64
58
55
32
31
22
22
21
21
13
5
8
9
13
4
3
9
8
13
9
13
10
6
5
7
2
6
3
2
5
10
63
93
95
117
126
128
133
144
154
149
148
153
162
174
173
185
191
189
191
191
178
117
91
72
63
64
42
40
29
26
20
24
26
30
31
46
65
94
125
153
164
176
185
178
172
172
170
168
162
149
163
154
156
149
145
130
134
125
128
124
117
124
101
111
96
89
90
70
72
67
45
46
34
29
28
28
21
10
12
5
6
8
15
11
7
13
10
13
8
7
16
21
7
3
7
5
9
4
2
9
43
91
79
108
114
120
134
134
138
149
144
155
161
174
182
186
193
194
187
198
195
174
129
68
58
43
26
32
18
20
25
32
36
48
55
82
93
109
138
157
167
181
168
175
165
171
163
160
154
161
153
155
164
147
153
145
129
125
129
120
113
114
102
101
94
99
94
75
76
72
65
44
41
27
29
19
18
11
12
6
15
14
11
5
6
4
8
11
9
8
14
12
11
8
6
6
9
5
2
11
32
67
76
100
112
116
120
140
137
132
149
149
157
161
177
182
190
189
189
191
191
195
183
144
84
52
31
29
31
33
35
47
54
69
83
104
119
129
148
158
164
173
167
162
163
167
154
156
157
155
156
144
157
148
146
147
134
121
123
113
121
120
111
109
99
93
92
76
82
72
72
47
42
35
30
23
16
11
10
14
11
8
13
4
7
7
11
16
12
5
12
7
9
8
7
6
8
6
8
8
28
66
96
98
112
116
126
127
136
131
136
138
153
153
167
179
183
185
185
191
192
197
193
163
136
83
57
47
54
49
55
71
79
85
108
114
132
129
148
156
149
152
152
150
148
144
147
143
153
149
145
156
156
143
145
142
133
128
130
118
110
114
118
102
96
104
92
77
70
68
56
51
39
33
24
24
14
9
13
13
13
10
10
7
11
12
12
13
10
11
7
7
7
6
5
5
6
8
5
6
23
69
87
108
106
116
126
132
114
135
129
136
159
150
167
174
179
185
183
186
188
185
183
163
134
106
99
88
79
81
93
100
105
108
119
124
135
136
150
142
137
143
139
136
139
134
136
136
146
141
145
148
153
148
151
142
137
133
125
118
115
116
114
107
104
95
94
78
75
70
61
62
44
36
29
25
17
15
9
14
14
13
11
7
9
5
10
15
14
17
12
6
7
7
5
9
10
10
18
10
13
52
85
108
117
121
126
126
126
128
137
131
149
144
154
162
173
183
180
189
193
195
182
163
152
117
123
115
107
108
104
111
116
126
123
132
137
137
140
139
128
130
125
115
112
118
120
123
141
145
154
155
146
152
145
147
142
131
123
126
119
112
114
98
94
89
87
76
68
64
63
50
44
32
25
23
19
13
11
12
15
8
10
7
6
11
9
21
13
17
15
14
12
11
8
10
9
7
12
11
13
35
90
102
116
127
133
127
127
142
132
134
145
143
143
141
161
167
188
187
193
192
184
171
161
149
150
134
123
121
112
121
117
123
121
125
127
124
126
126
119
111
113
103
108
116
127
129
142
155
152
148
144
150
154
144
140
132
127
125
120
116
114
107
93
87
98
76
78
61
51
47
50
36
22
24
29
20
12
8
10
9
7
18
8
13
12
17
23
20
15
30
20
14
13
14
13
5
8
9
6
21
76
102
115
127
128
130
131
139
120
137
134
133
127
132
143
163
186
173
174
174
175
168
168
150
157
142
137
120
114
115
117
119
118
123
117
114
118
102
103
91
83
86
104
123
129
137
150
160
159
161
156
164
155
139
134
126
124
120
126
111
113
100
97
83
88
82
63
66
64
46
42
25
29
24
20
13
9
10
6
7
5
4
7
8
12
17
22
34
40
37
16
15
13
10
7
8
10
7
12
17
53
91
107
125
128
138
136
147
141
134
135
133
111
107
106
118
144
137
143
147
159
150
165
156
147
119
116
113
109
108
100
96
94
99
90
86
95
72
70
61
49
66
116
139
146
154
159
158
157
162
150
159
150
149
140
129
120
121
126
103
101
99
89
85
92
71
74
57
58
48
28
32
25
21
14
10
15
10
6
8
4
7
4
7
13
13
24
28
26
41
19
24
13
8
2
5
7
3
5
7
42
88
111
123
125
139
138
150
151
141
129
125
104
76
60
71
94
88
100
120
131
128
140
135
128
112
96
94
81
85
80
67
68
57
61
56
55
46
30
36
44
92
132
151
157
149
157
163
162
164
157
156
157
144
138
138
127
122
119
108
105
87
85
78
86
69
65
48
51
36
34
17
22
19
9
12
11
7
6
14
8
5
9
9
8
20
29
22
22
31
22
29
15
4
4
6
10
10
5
4
19
75
105
125
124
132
136
148
147
147
141
135
117
99
88
89
84
73
76
87
91
114
123
109
115
93
84
67
79
68
54
58
60
46
45
47
44
52
54
83
126
138
151
155
147
154
167
168
164
160
162
151
158
149
133
136
127
126
106
108
114
93
96
86
83
63
57
53
48
38
35
26
26
25
20
16
14
15
14
7
8
6
10
10
12
20
23
24
14
19
25
14
5
5
8
10
11
14
5
4
18
44
94
110
125
130
145
148
147
155
151
146
138
130
143
152
172
172
158
160
132
135
135
104
96
75
86
85
87
77
76
67
68
67
74
68
95
110
129
133
144
152
142
154
154
160
170
165
168
158
155
151
148
144
138
134
126
125
109
107
100
95
93
91
89
62
51
49
38
34
29
20
23
34
12
15
12
19
10
3
2
6
4
10
10
12
31
32
31
20
16
7
6
8
7
6
5
4
3
8
13
33
71
108
125
136
145
146
147
143
158
151
155
153
174
177
193
178
175
175
183
180
190
175
153
141
152
146
140
124
128
113
111
108
120
116
121
126
140
145
147
145
147
148
159
154
163
167
169
163
151
149
151
140
133
126
122
132
105
103
88
88
92
87
80
67
56
45
37
38
26
20
24
20
15
18
6
12
6
7
14
7
10
8
7
11
24
29
31
11
6
5
6
6
5
6
6
6
3
6
6
27
44
87
108
127
129
135
147
151
161
153
159
167
181
183
195
180
177
178
173
185
180
181
170
166
175
169
158
147
133
134
124
122
115
113
118
135
144
147
147
153
150
150
155
153
153
162
158
155
162
145
145
135
130
124
111
113
99
106
84
77
82
83
72
60
57
39
30
35
29
22
23
21
20
15
8
11
10
9
10
28
4
8
8
16
26
25
15
8
8
6
7
7
7
5
7
5
2
4
4
9
31
65
97
115
130
129
141
141
157
156
164
171
182
191
189
175
173
163
163
163
161
159
148
148
159
151
151
140
135
122
119
108
110
99
132
131
136
142
150
127
143
162
155
160
153
160
153
148
138
142
139
133
126
117
108
113
100
91
82
80
72
76
72
62
54
49
41
30
30
29
21
15
20
29
12
8
12
13
12
8
7
4
5
15
30
27
13
7
5
3
10
5
6
8
7
2
2
4
4
4
15
48
81
106
124
122
134
141
150
161
174
169
187
191
181
176
168
155
150
142
141
145
137
139
129
126
122
108
119
111
118
110
105
110
120
135
144
137
144
133
144
144
151
157
149
156
139
148
143
142
126
126
112
121
103
102
86
81
86
71
68
67
71
59
45
37
38
33
29
30
22
14
20
21
7
13
9
11
14
12
9
10
10
24
29
17
6
7
7
9
12
9
5
5
5
1
1
5
6
4
4
31
62
94
112
121
131
133
143
150
155
162
168
180
189
169
160
152
140
133
128
120
97
98
85
99
95
94
99
86
92
100
108
110
124
125
127
129
123
120
134
138
137
145
136
141
139
147
140
132
129
123
116
113
97
90
93
74
84
70
69
57
54
52
41
34
37
37
35
26
23
16
13
12
9
3
13
10
9
7
13
20
8
13
27
16
9
8
5
10
13
8
5
5
3
2
0
3
4
5
2
9
32
71
84
102
125
125
139
146
151
165
158
165
189
166
176
157
151
134
122
98
91
80
85
83
77
79
84
95
109
122
107
116
115
124
118
130
117
128
123
135
140
145
137
138
139
139
137
135
129
114
107
104
93
88
86
80
59
69
58
61
49
49
33
46
37
36
28
29
29
23
14
12
5
3
3
7
6
5
5
11
9
17
19
16
14
11
6
4
7
6
8
10
2
2
3
6
7
6
5
3
16
41
63
88
96
112
129
118
139
138
156
161
182
154
170
172
156
141
126
112
108
101
94
98
105
102
101
112
108
128
126
132
110
122
116
134
114
128
123
123
130
142
137
132
130
139
131
116
116
122
97
102
90
83
67
68
69
60
63
57
56
57
34
36
30
26
28
26
21
15
12
8
8
14
8
6
6
10
8
9
15
20
14
13
16
12
6
3
7
9
8
18
7
4
6
4
4
6
6
3
4
20
42
72
89
103
115
127
130
146
151
151
174
151
170
172
170
160
147
141
138
130
128
131
122
110
126
125
110
139
133
137
137
139
133
133
122
129
119
128
124
137
136
130
133
133
124
112
109
108
85
86
81
68
69
65
54
55
46
57
46
56
42
35
36
33
27
29
16
17
12
14
12
15
13
5
13
10
12
9
20
16
10
9
10
12
6
3
6
10
19
7
7
5
3
1
2
4
5
4
3
6
16
37
60
92
99
121
130
132
146
139
180
155
168
176
177
164
172
168
155
158
151
157
149
141
144
145
142
145
143
152
137
130
129
127
125
132
130
125
130
136
133
128
128
119
116
103
103
101
80
78
74
61
60
61
57
54
52
46
45
51
43
40
37
34
25
22
21
18
13
9
9
8
8
8
4
8
5
6
7
11
11
7
6
10
8
7
6
7
11
6
9
7
7
4
6
4
3
6
7
7
6
23
27
56
87
99
116
139
144
145
169
155
172
171
185
188
187
186
180
186
183
180
183
171
166
164
158
161
155
162
143
134
130
136
130
134
140
132
132
135
136
123
117
112
109
96
100
90
80
67
71
70
53
59
51
54
54
41
56
58
33
36
36
32
21
21
22
8
11
12
11
9
9
6
6
6
5
8
10
11
9
6
6
5
5
7
5
5
9
7
6
10
9
8
7
5
5
6
6
3
8
3
13
32
61
81
113
125
134
150
158
161
168
179
191
188
192
197
194
192
198
192
189
170
180
166
164
162
154
157
155
132
132
131
133
130
134
128
126
139
127
128
116
104
102
92
90
74
77
67
61
58
57
63
45
45
44
41
47
45
30
39
35
38
22
21
15
11
15
12
6
2
5
6
4
11
6
8
11
12
12
5
8
6
4
6
10
10
7
9
7
4
7
15
11
5
7
3
3
4
4
5
5
14
27
54
89
119
135
127
157
162
168
185
185
189
187
192
194
193
197
199
203
190
179
173
161
156
148
159
147
138
127
129
134
141
134
126
123
131
116
117
114
95
93
89
82
65
56
70
49
52
51
51
43
46
45
44
42
55
42
38
31
26
16
18
14
7
7
6
9
3
9
10
7
10
9
11
11
12
10
3
8
8
3
5
8
4
7
10
9
18
5
10
14
11
9
4
7
4
7
5
5
6
12
31
53
97
116
124
148
160
176
183
187
192
190
201
198
196
201
201
197
194
184
178
165
156
155
147
152
153
131
135
125
137
127
130
124
123
113
103
97
96
92
72
62
55
65
58
55
51
46
45
43
46
37
46
38
42
31
28
18
28
13
6
7
5
6
7
6
2
9
11
10
5
4
8
9
13
16
3
6
14
13
7
8
9
8
17
9
9
5
6
7
10
8
7
6
3
3
3
2
1
5
8
20
55
89
108
147
145
170
169
186
191
191
192
196
198
195
199
189
184
188
170
160
147
157
144
119
142
139
133
128
135
125
120
111
108
102
88
95
86
82
57
64
62
50
55
51
50
47
47
45
54
42
44
41
36
33
17
28
8
15
9
5
6
5
8
12
11
8
8
9
5
4
8
6
12
13
6
5
19
18
11
17
20
12
18
15
10
10
10
14
16
7
5
2
3
3
4
2
0
0
4
10
28
46
92
125
141
157
177
178
187
185
190
190
193
190
189
182
178
171
163
153
159
142
137
129
144
130
132
121
130
119
118
94
95
95
81
83
65
74
65
55
53
50
54
53
62
48
50
48
56
44
39
38
23
25
15
16
11
16
8
7
6
6
7
11
9
7
7
14
6
4
10
10
8
11
5
9
32
26
11
21
21
17
9
10
12
12
8
15
22
7
3
3
4
4
5
4
5
5
6
6
9
27
58
92
128
148
157
175
180
179
188
180
180
190
182
171
173
165
141
142
135
135
142
141
134
122
124
97
116
111
97
94
82
84
65
63
56
64
65
40
44
39
44
52
54
48
45
40
51
41
37
30
23
20
21
18
17
6
7
8
7
5
7
11
12
17
4
11
6
5
7
8
12
15
11
16
28
25
16
27
28
19
14
16
13
19
26
23
26
11
4
6
5
4
1
6
8
8
5
6
8
21
24
51
105
131
150
159
165
171
176
172
186
180
181
170
167
155
145
141
143
142
140
130
121
117
114
95
112
98
80
85
67
70
64
71
56
70
46
48
40
39
53
37
46
48
41
40
45
32
33
32
31
27
11
11
13
7
7
7
6
8
8
9
7
6
13
9
8
7
7
7
11
15
14
23
21
14
30
19
38
20
10
15
13
19
26
20
19
5
9
4
6
4
3
7
8
7
9
5
10
6
11
31
57
105
112
145
153
161
159
171
169
162
171
161
152
147
137
133
138
126
134
127
120
104
98
88
82
73
57
71
60
56
58
45
44
48
46
38
48
39
45
38
45
51
31
42
31
25
25
34
26
22
13
8
13
9
4
5
7
8
9
9
13
7
15
3
3
6
6
6
10
16
11
19
10
10
12
24
18
8
11
15
26
32
28
20
9
6
7
7
5
1
5
6
5
3
2
3
10
7
8
17
29
66
112
118
141
142
150
173
151
154
150
146
139
129
139
123
131
115
120
111
108
99
75
67
66
50
47
54
39
56
47
51
42
38
38
39
60
41
58
40
52
44
36
28
22
21
18
12
14
22
8
9
10
18
9
12
11
16
10
8
12
16
5
5
4
6
5
6
12
18
19
27
13
15
17
19
8
7
12
17
16
17
23
15
9
9
8
5
2
2
2
7
5
3
4
1
1
3
4
4
13
37
71
89
109
129
130
158
140
131
135
127
123
117
121
115
101
101
107
97
86
76
66
67
54
44
50
42
38
43
48
43
35
37
37
38
47
54
45
35
38
35
25
12
13
13
13
14
9
11
11
28
17
16
14
12
9
18
7
12
7
6
6
11
4
5
4
7
17
19
19
14
13
12
10
10
5
16
14
16
15
14
16
7
8
8
7
6
5
4
1
6
8
8
7
1
1
2
3
5
11
15
36
56
101
106
110
123
122
112
106
107
107
124
101
92
97
84
87
68
61
63
58
55
38
46
47
37
47
42
44
39
41
41
46
48
40
32
36
47
34
28
17
12
11
7
9
10
14
10
14
24
25
26
27
14
16
12
12
7
8
7
13
16
6
7
8
8
14
17
25
15
10
4
9
9
5
15
15
12
11
10
11
7
7
7
6
5
4
7
3
7
7
3
4
7
1
2
2
8
7
6
16
19
44
71
78
76
100
88
84
87
75
91
81
61
65
59
57
45
49
52
50
48
38
37
39
33
37
36
35
42
39
44
34
38
37
34
31
38
26
20
10
11
12
9
8
12
12
19
18
26
32
35
29
19
11
13
12
6
15
9
15
10
12
7
16
17
22
25
27
10
8
5
6
11
9
9
12
6
6
7
8
5
3
3
5
4
1
2
0
4
6
4
1
2
1
1
0
4
5
6
6
8
7
32
44
36
59
57
56
50
56
58
49
41
46
46
41
46
45
42
49
41
46
41
42
33
42
34
37
32
32
35
30
27
24
27
19
19
13
16
10
9
8
15
10
14
24
21
16
15
23
33
24
26
9
8
11
6
6
12
12
17
8
8
18
15
15
15
27
15
10
4
5
7
13
7
5
2
6
6
9
9
8
3
6
4
1
0
0
5
6
3
2
2
6
7
4
6
5
6
20
7
11
7
13
27
19
38
32
35
34
30
20
42
39
39
33
31
38
44
34
39
35
37
33
31
42
29
36
35
23
24
24
21
21
11
9
14
11
9
8
15
15
17
22
23
16
20
32
22
26
24
22
36
19
11
11
13
14
9
13
14
17
11
20
18
14
18
37
12
7
5
9
7
10
8
6
3
4
8
9
13
8
2
6
3
1
1
1
4
6
2
2
7
9
11
7
3
4
6
12
9
7
7
8
8
20
31
20
26
23
27
23
24
26
25
37
33
39
31
25
29
27
38
38
33
29
15
19
24
18
16
16
21
11
5
8
12
7
12
11
13
14
17
21
25
14
23
26
30
25
21
29
28
21
9
12
20
18
14
10
17
16
16
9
18
21
17
38
13
8
5
5
11
12
13
7
6
4
7
9
10
4
1
3
4
1
1
1
1
5
5
1
6
7
6
6
5
4
8
9
9
7
6
11
6
20
12
14
16
20
16
14
19
21
18
24
38
26
35
23
24
29
25
29
20
35
30
8
17
9
10
6
11
8
11
11
8
13
10
19
9
13
23
30
28
26
35
25
31
28
37
27
30
14
19
25
32
13
14
25
32
18
13
19
14
12
11
17
24
8
6
7
6
9
10
7
6
10
8
8
9
4
3
4
5
6
2
1
1
1
2
6
6
4
5
5
6
6
13
10
7
9
6
4
3
6
6
6
11
7
10
15
28
16
18
19
27
28
11
20
11
27
28
16
15
18
11
6
6
10
5
7
11
14
11
10
13
19
13
12
14
10
23
27
26
18
39
31
25
26
23
29
30
30
15
20
28
29
29
24
27
31
20
16
16
10
9
10
13
8
4
6
7
4
7
8
10
18
16
5
6
7
5
5
4
7
6
3
0
1
5
7
3
7
6
2
1
2
8
3
7
5
5
6
5
6
9
9
11
11
8
13
8
10
6
8
10
11
7
6
15
8
12
9
9
6
8
7
8
12
8
7
11
13
17
14
14
19
20
24
12
28
18
27
24
29
35
34
30
24
21
32
31
31
33
42
42
34
33
37
32
17
19
33
18
11
10
11
8
12
7
4
1
10
7
9
10
14
17
9
8
9
5
3
3
7
7
7
7
4
6
7
2
3
4
1
4
2
6
2
3
9
8
4
6
5
9
15
21
21
19
17
10
8
10
11
7
11
13
7
9
4
12
11
6
9
11
7
9
14
13
5
13
12
22
15
23
19
20
14
26
35
28
28
28
31
33
33
38
29
33
20
57
41
36
47
42
37
32
34
32
17
21
19
11
12
10
8
4
7
6
7
6
8
6
6
9
8
5
7
7
7
4
3
5
5
7
7
7
3
3
6
6
7
8
4
1
1
5
4
1
8
5
2
6
4
7
18
34
37
47
38
28
22
23
21
13
10
14
11
23
15
13
12
12
10
13
15
11
15
19
13
20
21
21
22
22
19
24
21
24
38
30
35
28
33
31
35
30
40
53
38
48
50
43
44
57
41
52
34
36
25
23
18
10
17
20
21
11
12
13
13
13
13
14
11
12
15
10
7
9
12
12
12
12
12
13
13
9
6
8
10
15
42
15
15
10
10
10
9
7
8
8
11
14
13
11
23
52
67
68
68
54
42
37
42
37
35
28
24
22
27
25
18
14
22
24
22
15
20
27
31
27
26
26
19
35
29
36
34
35
43
33
39
42
45
53
50
39
56
50
51
64
71
72
61
58
56
45
34
34
33
30
22
23
22
