P2
# feep.pgm
5 7
15
0  0  0  0  0
2  3  3  3  3
0  3  0  0  0
0  3  3  3  0
0  3  0  0  0
0  3  0  0  0
0  0  0  0  1